<svg width="484" height="458" viewBox="0 0 484 458" fill="none" xmlns="http://www.w3.org/2000/svg">
<path d="M106.249 49.114C100.345 60.9233 97.3924 76.9007 97.3924 97.046L97.9134 117.886V138.205C97.9134 156.614 96.0031 172.07 92.1824 184.574C88.7091 197.078 80.7204 210.45 68.2164 224.691C75.5104 231.29 80.3731 242.579 82.8044 258.556C85.2358 274.533 86.6251 294.331 86.9724 317.95C87.3198 344 88.5354 364.145 90.6194 378.386C93.0508 392.974 98.7818 403.741 107.812 410.688C111.633 413.814 115.975 415.898 120.837 416.94C125.7 417.982 131.431 418.677 138.03 419.024C145.672 419.719 151.055 420.761 154.181 422.15C157.655 423.887 159.391 427.36 159.391 432.57C159.391 440.559 155.571 446.637 147.929 450.805C140.635 454.973 131.431 457.057 120.316 457.057C101.908 457.057 85.2358 450.284 70.3004 436.738C55.3651 423.192 46.1608 407.215 42.6874 388.806C41.2981 382.207 40.6034 374.218 40.6034 364.84C40.6034 359.283 40.9508 350.599 41.6454 338.79L42.1664 312.74C42.1664 288.427 40.0824 271.928 35.9144 263.245C33.8304 258.382 28.0994 253.172 18.7214 247.615C12.1221 243.447 7.4331 239.974 4.65443 237.195C1.87577 234.069 0.486434 229.901 0.486434 224.691C0.486434 220.523 1.35477 216.529 3.09143 212.708C5.17543 209.582 7.78043 206.977 10.9064 204.893C14.3798 202.809 17.8531 200.899 21.3264 199.162C28.2731 195.341 32.9621 192.215 35.3934 189.784C41.6454 184.227 45.4661 176.759 46.8554 167.381C48.5921 158.003 49.4604 144.457 49.4604 126.743V110.592C49.4604 82.458 51.8918 59.3603 56.7544 41.299C61.6171 23.2377 72.2108 10.9073 88.5354 4.30799C94.4401 1.87665 102.255 0.66098 111.98 0.66098C123.095 0.66098 132.994 2.22398 141.677 5.34998C150.361 8.12865 154.702 12.4703 154.702 18.375C154.702 29.1423 152.445 35.9153 147.929 38.694C143.761 41.1253 139.072 42.1673 133.862 41.82C128.652 41.4726 125.005 41.299 122.921 41.299C114.933 41.299 109.375 43.904 106.249 49.114ZM317.751 114.239C324.697 114.239 330.081 115.976 333.902 119.449C338.07 122.575 340.154 126.569 340.154 131.432C340.154 134.905 339.459 138.552 338.07 142.373C337.028 145.846 335.812 149.493 334.423 153.314C326.434 172.07 309.588 198.294 283.886 231.985C310.283 266.024 331.644 287.906 347.969 297.631C349.358 298.326 351.963 299.541 355.784 301.278C359.604 303.015 362.557 305.099 364.641 307.53C367.072 309.961 368.288 312.74 368.288 315.866C368.288 323.507 365.335 329.759 359.431 334.622C353.873 339.137 347.1 341.395 339.112 341.395C325.566 341.395 310.804 333.927 294.827 318.992C278.849 303.709 265.303 287.732 254.189 271.06C246.2 283.217 236.996 295.373 226.576 307.53C216.503 319.339 207.125 329.412 198.442 337.748C194.968 341.569 190.8 344.521 185.938 346.605C181.422 348.689 176.907 349.731 172.392 349.731C166.14 349.731 160.582 348.342 155.72 345.563C150.857 342.784 148.426 337.922 148.426 330.975C148.426 329.238 149.641 326.46 152.073 322.639C154.504 318.471 155.893 316.04 156.241 315.345C160.409 308.051 165.966 300.583 172.913 292.942C179.859 284.953 184.201 279.917 185.938 277.833C190.106 272.623 194.621 267.587 199.484 262.724C202.262 259.598 206.43 254.735 211.988 248.136C217.545 241.537 221.366 236.327 223.45 232.506L205.215 207.498C196.531 197.425 189.064 189.437 182.812 183.532C176.56 177.28 171.523 174.154 167.703 174.154C162.145 174.154 156.935 175.717 152.073 178.843C147.905 181.622 143.737 183.011 139.569 183.011C135.053 183.011 131.58 181.969 129.149 179.885C126.717 177.454 125.502 174.849 125.502 172.07C125.502 160.261 130.191 150.188 139.569 141.852C148.947 133.169 160.756 128.827 174.997 128.827C188.543 128.827 200.526 133.516 210.946 142.894C221.713 151.925 232.307 164.081 242.727 179.364C244.116 180.753 245.679 183.011 247.416 186.137C249.152 189.263 250.889 191.868 252.626 193.952C256.446 188.395 263.393 177.627 273.466 161.65C284.233 142.547 290.659 131.606 292.743 128.827C300.037 119.102 308.373 114.239 317.751 114.239ZM377.348 49.114C375.958 45.988 373.701 44.0776 370.575 43.383C367.796 42.341 364.149 41.82 359.634 41.82C358.244 41.82 354.424 41.9936 348.172 42.341C341.92 42.341 337.231 40.4306 334.105 36.61C330.979 32.7893 329.416 26.711 329.416 18.375C329.416 12.4703 333.757 8.12865 342.441 5.34998C351.124 2.22398 361.023 0.66098 372.138 0.66098C381.516 0.66098 389.331 1.87665 395.583 4.30799C411.907 10.9073 422.327 23.2377 426.843 41.299C431.705 59.013 434.137 82.1107 434.137 110.592V126.743C434.137 144.11 435.005 157.656 436.742 167.381C438.478 176.759 442.473 184.227 448.725 189.784C451.156 192.215 455.845 195.341 462.792 199.162C466.265 200.899 469.565 202.809 472.691 204.893C475.817 206.977 478.422 209.582 480.506 212.708C482.59 217.223 483.632 221.391 483.632 225.212C483.632 230.075 482.069 234.069 478.943 237.195C475.817 240.321 471.301 243.794 465.397 247.615C456.366 252.825 450.461 258.035 447.683 263.245C443.862 272.276 441.952 288.774 441.952 312.74L442.473 338.79C442.82 344.695 442.994 353.378 442.994 364.84C442.994 375.955 442.473 383.943 441.431 388.806C437.957 407.215 428.753 423.192 413.818 436.738C398.882 450.284 382.037 457.057 363.281 457.057C352.166 457.057 342.962 454.973 335.668 450.805C328.374 446.637 324.727 440.559 324.727 432.57C324.727 427.36 326.29 423.887 329.416 422.15C332.889 420.761 338.446 419.719 346.088 419.024C352.687 418.677 358.418 417.982 363.281 416.94C368.143 415.898 372.485 413.814 376.306 410.688C384.989 403.741 390.373 393.148 392.457 378.907C394.888 365.014 396.451 344.695 397.146 317.95C397.493 294.331 398.709 274.533 400.793 258.556C403.224 242.579 408.087 231.29 415.381 224.691C402.877 210.45 394.888 197.078 391.415 184.574C387.941 171.723 386.205 156.266 386.205 138.205V117.886V97.567C386.205 76.727 383.252 60.576 377.348 49.114Z" fill="#107C7C"/>
</svg>
